

Release info:

General
Format                                   : Matroska
Format version                           : Version 2
File size                                : 694 MiB
Duration                                 : 1h 52mn
Overall bit rate                         : 960 Kbps


Video
ID                                       : 1
Format                                   : MPEG-4 Visual
Format profile                           : Advanced Simple@L5
Format settings, BVOP                    : Yes
Format settings, QPel                    : No
Format settings, GMC                     : No warppoints
Format settings, Matrix                  : Custom
Codec ID                                 : V_MS/VFW/FOURCC / XVID
Codec ID/Hint                            : XviD
Duration                                 : 1h 52mn
Bit rate                                 : 740 Kbps
Width                                    : 672 pixels
Height                                   : 360 pixels
Display aspect ratio                     : 1.85:1
Frame rate mode                          : Constant
Frame rate                               : 23.976 fps
Color space                              : YUV
Chroma subsampling                       : 4:2:0
Bit depth                                : 8 bits
Scan type                                : Progressive
Compression mode                         : Lossy
Bits/(Pixel*Frame)                       : 0.121
Stream size                              : 577 MiB (83%)
Language                                 : English
Default                                  : Yes
Forced                                   : No

Audio
ID                                       : 2
Format                                   : AC-3
Format/Info                              : Audio Coding 3
Mode extension                           : CM (complete main)
Format settings, Endianness              : Big
Muxing mode                              : Header stripping
Codec ID                                 : A_AC3
Duration                                 : 1h 52mn
Bit rate mode                            : Constant
Bit rate                                 : 112 Kbps
Sampling rate                            : 44.1 KHz
Bit depth                                : 16 bits
Compression mode                         : Lossy
Stream size                              : 103 MiB (15%)
Language                                 : English
Default                                  : Yes
Forced                                   : No

Source:
credit to original movie ripper SPARKS (Thanks)

IMDB Info:

Beca, a freshman at Barden University, is cajoled into joining The Bellas, her school's all-girls singing group. Injecting some much needed energy into their repertoire, The Bellas take on their male rivals in a campus competition.

Director: Jason Moore
Writers: Kay Cannon (screenplay), Mickey Rapkin (book)
Stars: Anna Kendrick, Brittany Snow and Rebel Wilson

Genres: Comedy | Music | Romance
 
http://www.imdb.com/title/tt1981677/

Screen Shot:
 
http://www.shotpix.com/images/52454063303810785358.png 
http://www.shotpix.com/images/92853557309744065392.png 
http://www.shotpix.com/images/16482370570066288382.png 
http://www.shotpix.com/images/52000809952445374622.png 
http://www.shotpix.com/images/45818543074383738259.png 
http://www.shotpix.com/images/99601367351530705603.png 
http://www.shotpix.com/images/10833523425233476153.png